<?xml version="1.0" standalone="no"?>
<!DOCTYPE svg PUBLIC "-//W3C//DTD SVG 20010904//EN"
 "http://www.w3.org/TR/2001/REC-SVG-20010904/DTD/svg10.dtd">
<svg version="1.0" xmlns="http://www.w3.org/2000/svg"
 width="512.000000pt" height="512.000000pt" viewBox="0 0 512.000000 512.000000"
 preserveAspectRatio="xMidYMid meet">
<metadata>
Created by potrace 1.14, written by Peter Selinger 2001-2017
</metadata>
<g transform="translate(0.000000,512.000000) scale(0.100000,-0.100000)"
fill="#000000" stroke="none">
<path d="M2379 5116 c-2 -2 -35 -6 -74 -10 -194 -17 -502 -88 -650 -151 -16
-7 -49 -20 -73 -29 -23 -9 -82 -35 -130 -58 -723 -350 -1248 -1024 -1401
-1800 -38 -195 -46 -277 -46 -508 0 -242 14 -370 66 -595 148 -641 570 -1227
1140 -1580 297 -185 692 -327 999 -360 36 -4 87 -11 115 -15 51 -8 470 -5 515
4 14 3 48 8 75 11 88 11 284 54 373 81 414 125 788 349 1085 649 419 424 674
961 734 1550 10 93 10 410 1 505 -79 795 -534 1519 -1214 1933 -262 159 -607
292 -864 332 -19 3 -42 8 -50 10 -8 2 -39 7 -69 10 -30 4 -63 9 -75 12 -24 5
-452 14 -457 9z m93 -188 c3 -11 2 -965 -1 -992 -2 -13 -293 2 -456 24 -38 5
-92 12 -120 16 -27 3 -57 7 -65 9 -8 3 -31 7 -50 10 -128 21 -155 30 -152 50
2 11 35 84 72 162 185 387 417 630 680 714 68 21 87 23 92 7z m302 -20 c176
-61 363 -226 509 -451 76 -117 182 -326 207 -409 8 -25 6 -26 -34 -32 -57 -9
-93 -15 -141 -26 -22 -5 -67 -12 -100 -15 -33 -4 -69 -9 -80 -11 -11 -2 -49
-7 -85 -10 -36 -3 -76 -8 -90 -10 -14 -2 -90 -7 -170 -10 l-145 -6 1 498 c1
275 2 503 3 507 1 11 49 1 125 -25z m-864 -95 c-30 -31 -62 -64 -70 -73 -110
-110 -304 -432 -365 -605 -10 -27 -22 -54 -25 -58 -15 -18 -302 77 -470 155
l-85 39 50 46 c269 243 586 426 910 524 50 15 94 28 100 28 5 1 -15 -25 -45
-56z m1347 31 c166 -51 434 -171 542 -243 14 -9 62 -42 106 -71 85 -57 188
-138 270 -213 l50 -46 -85 -39 c-169 -78 -454 -172 -470 -155 -4 4 -17 35 -29
68 -78 213 -246 476 -420 658 -35 37 -61 67 -57 67 5 0 46 -12 93 -26z m-2390
-748 c103 -50 285 -120 408 -157 61 -18 112 -34 114 -35 2 -2 -4 -27 -13 -56
-33 -112 -47 -166 -70 -268 -28 -122 -53 -256 -61 -320 -3 -25 -7 -56 -10 -70
-7 -38 -12 -83 -30 -285 -2 -27 -5 -96 -7 -152 -1 -62 -6 -104 -12 -106 -10
-2 -988 -1 -1009 2 -4 1 -5 13 -3 29 3 15 8 63 11 107 31 433 218 892 520
1277 67 85 59 84 162 34z m3568 -60 c95 -114 230 -337 305 -504 99 -222 174
-502 195 -732 3 -36 7 -84 9 -107 3 -26 0 -43 -8 -45 -9 -3 -990 -2 -1007 1
-3 1 -6 20 -6 44 0 56 -12 285 -18 333 -8 66 -26 207 -31 244 -19 139 -83 424
-129 575 -8 28 -15 53 -15 57 0 3 24 12 53 18 112 27 337 112 487 184 l75 36
25 -28 c14 -15 43 -49 65 -76z m-2777 -192 c110 -23 134 -27 232 -39 25 -3 52
-8 60 -10 8 -2 49 -7 90 -10 41 -4 89 -9 105 -11 17 -2 93 -6 170 -9 77 -4
145 -8 150 -9 7 -2 10 -194 9 -552 -1 -302 -2 -551 -3 -554 -1 -3 -249 -5
-552 -5 l-552 0 7 160 c3 88 8 174 10 190 3 17 7 57 11 90 8 79 21 170 40 265
3 13 7 41 10 62 3 21 22 102 41 180 29 122 41 165 69 256 5 15 10 15 103 -4z
m1919 -34 c16 -55 63 -236 69 -269 3 -12 11 -51 19 -85 7 -33 16 -79 20 -101
3 -22 7 -47 10 -55 2 -8 6 -37 10 -65 3 -27 10 -77 15 -110 14 -84 18 -137 26
-320 l7 -160 -552 0 c-303 0 -551 2 -552 5 -4 18 -3 1094 1 1100 3 4 70 11
150 14 80 4 163 9 185 11 122 13 154 16 190 21 22 2 51 7 65 9 14 2 45 7 69
10 24 4 83 15 130 25 116 25 121 24 138 -30z m-2381 -1380 c1 -72 15 -307 19
-332 2 -13 6 -50 10 -83 23 -218 82 -514 145 -726 12 -39 20 -72 18 -73 -2 -1
-52 -17 -113 -35 -127 -38 -305 -107 -420 -163 l-80 -39 -34 38 c-85 96 -203
268 -283 413 -64 114 -178 392 -193 468 -2 9 -12 53 -23 97 -27 104 -49 240
-57 340 -4 44 -8 91 -11 105 -2 13 1 27 5 30 5 3 236 5 513 5 l503 -1 1 -44z
m1279 -504 c0 -301 -2 -551 -5 -556 -3 -4 -72 -10 -155 -14 -82 -4 -163 -9
-180 -11 -16 -2 -57 -6 -90 -10 -63 -6 -255 -33 -290 -40 -11 -3 -33 -7 -49
-10 -16 -2 -54 -9 -84 -16 -30 -6 -58 -7 -62 -2 -12 12 -78 263 -105 398 -34
169 -48 253 -60 375 -4 30 -8 69 -10 85 -3 17 -7 102 -11 190 l-7 160 554 0
553 -1 1 -548z m1272 545 c7 -1 11 -7 8 -13 -2 -7 -6 -80 -9 -163 -4 -82 -8
-159 -10 -170 -2 -11 -7 -49 -11 -85 -20 -196 -89 -534 -149 -730 -16 -54 0
-54 -246 -12 -102 17 -216 34 -255 37 -38 4 -80 8 -92 10 -12 2 -86 6 -165 10
-79 3 -150 8 -158 11 -13 3 -15 72 -14 546 1 299 2 548 3 553 1 7 188 10 543
9 299 -1 548 -2 555 -3z m1197 -21 c-6 -135 -33 -329 -65 -455 -24 -95 -84
-284 -109 -340 -10 -22 -30 -66 -44 -98 -94 -213 -352 -586 -394 -570 -9 4
-43 20 -76 36 -137 66 -469 187 -514 187 -10 0 -12 7 -8 23 89 310 138 560
170 857 8 76 18 241 19 310 0 36 3 67 8 70 4 3 234 5 511 5 l503 -1 -1 -24z
m-2470 -1762 l0 -503 -34 3 c-45 4 -107 25 -178 61 -211 108 -399 328 -556
653 -84 174 -92 194 -74 195 7 1 49 9 93 17 134 28 303 51 445 62 47 3 86 7
87 8 1 0 50 2 110 4 l108 3 -1 -503z m496 487 c19 -3 60 -7 90 -10 103 -11
275 -36 310 -45 19 -5 53 -11 75 -15 22 -3 43 -9 47 -13 3 -4 -10 -45 -31 -92
-142 -327 -318 -564 -517 -699 -77 -52 -196 -105 -259 -115 l-40 -7 1 498 c1
274 2 502 3 507 1 7 234 1 321 -9z m-1489 -203 c63 -167 182 -373 297 -517 31
-38 58 -72 61 -75 4 -3 33 -34 66 -68 70 -74 72 -73 -105 -14 -244 81 -536
238 -720 389 -34 27 -121 103 -154 134 l-30 28 75 35 c93 44 178 77 299 116
52 16 106 34 120 39 50 18 61 10 91 -67z m2243 68 c198 -61 367 -125 461 -172
l39 -21 -49 -44 c-270 -243 -559 -411 -890 -518 -138 -44 -138 -44 -74 22 105
108 170 192 252 318 46 72 159 292 172 334 16 52 36 91 47 91 6 0 25 -4 42
-10z"/>
</g>
</svg>
